<?xml version="1.0" encoding="UTF-8"?>
<svg id="svg8" xmlns="http://www.w3.org/2000/svg" viewBox="0 0 172.9597 68">
  <circle id="circle2280" cx="34" cy="26.6672" r="24.9381" style="fill: #e66581;"/>
  <rect id="rect2282" x="23.0546" y="52.0326" width="21.3673" height="3.817" rx="1.5591" ry="1.5591" style="fill: #9e9e9e;"/>
  <rect id="rect2284" x="23.0773" y="57.0487" width="21.3218" height="3.8957" rx="1.5912" ry="1.5912" style="fill: #767677;"/>
  <rect id="rect2286" x="27.6154" y="62.1436" width="12.2456" height="3.8563" rx="1.5752" ry="1.5752" style="fill: #616262;"/>
  <g>
    <path d="m26.3647,15.1823c.1035,0,.2139.0054.3281.0156,1.8027.1138,2.7041,1.1602,2.7041,3.1396,0,2.125-.9102,4.4902-2.7314,7.0947-1.1934,1.6978-2.4541,3.0884-3.7832,4.1719.083.6699.1875,1.292.3135,1.8672.7422,3.5581,2.0742,5.3364,3.9971,5.3364.7422,0,1.4473-.2148,2.1162-.6436,1.2129-.7852,2.1797-2.146,2.9004-4.0815-.5107-.0732-.9795-.2256-1.4062-.4565-1.1045-.6079-1.6562-1.5942-1.6562-2.9575,0-.6914.25-1.2949.75-1.8086.5625-.5767,1.2236-.8652,1.9844-.8652.75,0,1.3955.2109,1.9375.6318.7285.5786,1.0938,1.3784,1.0938,2.3994-.0107.417-.0156.6304-.0156.6406.1763-.083.395-.2031.6558-.3594.4062-.2603.7441-.3906,1.0156-.3906.1455,0,.291.042.4375.1255.3438.188.5156.4858.5156.8931,0,.2402-.0889.4707-.2656.6895-.4795.5957-1.4121,1.04-2.7964,1.332-.4688,1.6963-1.209,3.1792-2.2188,4.4478-1.4277,1.79-3.042,2.6846-4.8438,2.6846-2.584-.0107-4.4746-1.6201-5.6719-4.8286-.8232-2.229-1.2344-4.8799-1.2344-7.9531,0-.1768.0098-.4009.0312-.6719.1436-2.1875.5537-4.1978,1.2314-6.0312,1.0938-2.9478,2.6309-4.4219,4.6113-4.4219Zm-3.3721,9.1211c-.1162.8438-.1895,1.6553-.2207,2.4365.6602-.6562,1.3271-1.4473,1.998-2.374,1.668-2.3008,2.502-4.2529,2.502-5.856,0-.0835-.0215-.1821-.0625-.2969-.168-.458-.4414-.687-.8184-.687-.8496.0107-1.5635.5728-2.1406,1.6865-.5234,1.041-.9434,2.7383-1.2578,5.0908Zm9.1074,3.8945c-.1045,0-.2139.021-.3281.0625-.334.125-.5.3545-.5.6875.0098.5938.5098.9375,1.5,1.0312,0-.0728.0049-.1821.0156-.3281.0205-.2188.0312-.375.0312-.4688,0-.0518-.0059-.1094-.0156-.1719-.0527-.5415-.2871-.8125-.7031-.8125Z"/>
    <path d="m42.1934,39.0891c-2.5107-.1045-4.3701-1.6357-5.5781-4.5942-.8965-2.229-1.3438-4.958-1.3438-8.1875,0-.1665.0098-.3799.0312-.6406.1455-2.1978.5518-4.2134,1.2188-6.0469,1.083-2.958,2.6143-4.4375,4.5938-4.4375.1035,0,.2129.0054.3281.0156,1.8018.1138,2.7031,1.1602,2.7031,3.1387,0,2.1553-.9277,4.5508-2.7812,7.1846-1.1777,1.6768-2.4121,3.0361-3.7031,4.0771.3535,1.981.7441,3.4668,1.1719,4.457.791,1.8354,1.9688,2.7524,3.5312,2.7524.1035,0,.2129-.0107.3281-.0312.3438-.0625.8223-.3125,1.4375-.751.5938-.4062,1.0566-.6094,1.3906-.6094.1455,0,.2861.0469.4219.1406.3018.208.4531.4893.4531.8438-.0215.542-.4062,1.0996-1.1562,1.6729-.9375.6768-1.9531,1.0156-3.0469,1.0156Zm-1.0625-21.563c-.6152.0107-1.1562.2764-1.625.7979-1.1875,1.3447-1.8389,4.1543-1.9531,8.4287.625-.6357,1.25-1.3867,1.875-2.252,1.7285-2.3662,2.5938-4.3633,2.5938-5.9893,0-.0835-.0215-.1826-.0625-.2974-.167-.4585-.4434-.688-.8281-.688Z"/>
  </g>
  <g>
    <path d="m71.2881,14.6516c4.4092.021,6.6533,1.6772,6.7334,4.9688-.0215,2.792-.959,4.917-2.8125,6.375,2.8428.8438,4.2695,2.6929,4.2812,5.5469-.0771,1.1562-.3232,2.1875-.7393,3.0938-1.4043,3.042-4.6904,4.5625-9.8584,4.5625-.624,0-1.5596-.0361-2.8076-.1084-.249,0-.4775-.0674-.6865-.2031-.4053-.29-.6074-.7256-.6074-1.3066l2.793-21.5225c.0098-.1768.0518-.3486.125-.5156.2168-.4688.5908-.7031,1.1201-.7031.8604-.125,1.6807-.1875,2.459-.1875Zm-2.6641,13.1719l-1.1807,8.9531c.5938.042,1.0566.0625,1.3906.0625,1.6348,0,3.0674-.1943,4.2969-.584,2.5518-.8232,3.8281-2.3784,3.8281-4.667-.0107-1.5605-1.0303-2.6309-3.0596-3.2109-1.0928-.2949-2.8506-.4795-5.2754-.5537Zm1.3926-10.8281l-1.0889,8.25c.3428,0,.6602-.0107.9512-.0312,3.8027-.21,5.7051-2.0693,5.7051-5.5791-.0098-.8584-.3545-1.5186-1.0332-1.9795-.7402-.4717-2.0049-.707-3.7939-.707-.2363,0-.4834.0156-.7402.0469Z"/>
    <path d="m85.4121,26.9797c0,.3022-.0488.9531-.1445,1.9531-.2998,2.9585-.4492,4.7969-.4492,5.5156,0,.4795.0986.9277.2969,1.3438.291.625.6816.9375,1.1719.9375.1035,0,.2129-.0098.3281-.0312.3018-.0723.7393-.3174,1.3125-.7344.5625-.416,1.0156-.625,1.3594-.625.1455,0,.291.0527.4375.1562.291.209.4375.4844.4375.8281-.042.5312-.4531,1.0938-1.2344,1.6875-.959.667-1.9639,1-3.0156,1-.8867,0-1.623-.3066-2.21-.9219-.8809-.9375-1.3213-2.4268-1.3213-4.4688,0-.6978.1406-2.0625.4219-4.0938.125-.9478.2129-1.6455.2656-2.0938.0098-.0938.0205-.1875.0312-.2812.1641-1.0415.5859-1.5625,1.2637-1.5625.1133,0,.2266.0107.3398.0312.4727.1147.709.5679.709,1.3594Zm-1.75-4.0938c0-.1875.041-.3643.125-.5312.208-.4062.5469-.6094,1.0156-.6094.1875,0,.3643.042.5312.125.4062.2085.6094.5469.6094,1.0156,0,.1875-.042.3647-.125.5312-.209.4062-.5469.6094-1.0156.6094-.1875,0-.3652-.0415-.5312-.125-.4062-.208-.6094-.5469-.6094-1.0156Z"/>
    <path d="m88.2402,37.4865l1.3281-10.0537c.0205-.1768.0469-.3438.0781-.5.1875-.8955.5938-1.3438,1.2188-1.3438.1143,0,.2285.0107.3438.0312.4785.1147.7188.5679.7188,1.3594,0,.1147-.0107.3125-.0312.5938-.0107.1875-.0156.3335-.0156.4375.0205-.0415.0469-.083.0781-.125.7705-1.3643,1.8691-2.0469,3.2969-2.0469.5098,0,.9785.1514,1.4062.4531.6348.4688.9531,1.0889.9531,1.8594,0,.125-.0059.4219-.0156.8906-.0107,1.0625-.0156,1.9082-.0156,2.5361,0,2.1357.0625,3.3926.1875,3.7695.0312.083.0625.1719.0938.2666.291.7959.7031,1.1934,1.2344,1.1934.0938,0,.1973-.0107.3125-.0322.3125-.0635.7598-.3135,1.3438-.751.5723-.415,1.0312-.623,1.375-.623.1348,0,.2656.0371.3906.1094.3223.1875.4844.4951.4844.9219-.0625.5107-.5,1.0732-1.3125,1.6875-.959.6465-1.9219.9688-2.8906.9688-.7812,0-1.4434-.2129-1.9844-.6406-1.1152-.8955-1.6719-2.8594-1.6719-5.8906,0-.2188.0049-.5728.0156-1.0625.0205-.5103.0312-.9375.0312-1.2812,0-1.1143-.125-1.6875-.375-1.7188-.042,0-.0938.0107-.1562.0312-.5938.2197-1.3545,1.4062-2.2812,3.5605-.8125,1.8926-1.334,3.4658-1.5625,4.7207l-.0312.4473c-.0312.3701-.1357.709-.3125,1.0166-.3027.4932-.6777.7393-1.125.7393-.125,0-.25-.0254-.375-.0771-.4902-.2256-.7344-.708-.7344-1.4473Z"/>
    <path d="m101.0059,34.1203c0-.354.0205-.729.0625-1.125.2188-1.7812.7812-3.3643,1.6875-4.75,1.1035-1.6978,2.4316-2.5469,3.9834-2.5469.542,0,1.0674.0991,1.5781.2969l1.2666-9c.1641-1.2188.5957-1.833,1.2949-1.8438.1133,0,.2266.0254.3398.0752.4727.2754.709,1.3633.709,3.2646,0,.21-.1338,1.4053-.4004,3.585-1.1855,7.5918-1.7793,11.7681-1.7793,12.5283,0,.4795.0996.9277.2969,1.3438.292.625.6826.9375,1.1719.9375.0938,0,.1934-.0098.2969-.0312.3125-.0625.7656-.3018,1.3594-.7188.584-.416,1.0469-.625,1.3906-.625.1465,0,.2812.0527.4062.1562.25.209.375.4746.375.7969-.041.542-.4473,1.1094-1.2188,1.7031-.9375.667-1.9316,1-2.9844,1-1.2998-.0107-2.2822-.666-2.9463-1.9688-.1553.1875-.332.3701-.5293.5469-.9971.917-2.0088,1.375-3.0361,1.375-.6533,0-1.2207-.166-1.6992-.5-1.084-.75-1.625-2.25-1.625-4.5Zm5.5625,1.0625c.1348-.1973.3018-.7134.5-1.5469.416-1.8018.7344-3.6924.9531-5.6719-.2402-.1143-.4902-.1875-.75-.2188-.1875,0-.3809.0264-.5781.0781-.9688.271-1.7871,1.167-2.4531,2.6875-.5938,1.3647-.8906,2.7344-.8906,4.1094,0,.1147.0049.2295.0156.3438.0518,1.1562.375,1.7344.9688,1.7344.3018-.0098.6816-.1768,1.1406-.5.4893-.3535.8535-.6924,1.0938-1.0156Z"/>
    <path d="m112.8809,34.0734c0-.354.0264-.729.0781-1.125.209-1.7812.7637-3.3696,1.6621-4.7656,1.0869-1.6875,2.3887-2.5312,3.9043-2.5312.7109,0,1.3535.167,1.9287.5.9717.5625,1.458,1.4219,1.458,2.5781,0,.125-.0059.2554-.0156.3906-.1162,1.7188-.9629,3.0366-2.54,3.9531-1.0615.6147-2.165.9219-3.3115.9219-.2832,0-.5625-.0259-.8359-.0781-.0312.207-.0469.4146-.0469.6216,0,.3735.0576.7153.1719,1.0259.3037.7666.9199,1.1494,1.8496,1.1494,1.2441,0,2.5137-.4697,3.8096-1.4102,1.5459-1.147,2.9355-2.79,4.1689-4.9287-.084-.042-.167-.084-.25-.126-1.0938-.6079-1.6406-1.5884-1.6406-2.9409,0-.4507.1182-.8755.3555-1.2739.4736-.7861,1.2227-1.1797,2.2451-1.1797.5381,0,1.0391.1387,1.502.415.7754.4688,1.1631,1.1235,1.1631,1.9648,0,.3618-.0742.8193-.2207,1.373.2578-.1318.6162-.3755,1.0762-.731.5957-.3857,1.0264-.5786,1.292-.5786.3291,0,.6279.0859.8994.2588.3018.1929.4531.3809.4531.5635,0,.0615-.0371.2188-.1094.4727-.5527,1.8789-.8281,3.4316-.8281,4.6592,0,1.0918.1191,1.9707.3594,2.6357.3018.791.7236,1.1855,1.2656,1.1855.3125-.0312.833-.2656,1.5625-.7012.6455-.4248,1.125-.6367,1.4375-.6367.1562,0,.3125.0527.4688.1572.2705.21.4062.4512.4062.7236-.0312.5771-.4375,1.1699-1.2188,1.7783-.9375.6816-1.9326,1.0225-2.9844,1.0225-.125,0-.2559-.0049-.3906-.0156-1.168-.1455-2.0283-.8105-2.5811-1.9951-.4043-.6963-.6064-1.8857-.6064-3.5693,0-.3223.0107-.6597.0322-1.0132.0635-1.1323.165-1.9692.3027-2.5093-.4883.2432-1.0566.3906-1.7041.4414-.9014,1.9209-2.0957,3.6084-3.583,5.0625-2.2109,2.1592-4.542,3.2393-6.9932,3.2393h-.252c-2.4941-.1035-3.7402-1.7656-3.7402-4.9844Zm5.0186-5.8921c-.0205.0103-.0479.0259-.0791.0454-.9336.6406-1.6621,1.8086-2.1865,3.5044.2207.0405.4668.061.7393.061.8916,0,1.6729-.2588,2.3438-.7773.7139-.5586,1.0703-1.2236,1.0703-1.9956,0-.1016-.0107-.208-.0312-.3198-.084-.5791-.3359-.8784-.7559-.8989-.3877.0508-.7549.1777-1.1006.3809Zm7.2627-.6704c.0098.5078.3066.8887.8906,1.1426.2285-.5176.3486-.8984.3594-1.1426,0-.0605-.0107-.127-.0312-.1982-.0732-.2739-.2656-.4111-.5781-.4111-.0625,0-.125.0103-.1875.0303-.3027.0815-.4531.2744-.4531.5791Z"/>
    <path d="m143.8809,39.0891c-2.5107-.1035-4.3701-1.6348-5.5781-4.5938-.8965-2.229-1.3438-4.958-1.3438-8.1875,0-.1665.0098-.3799.0312-.6406.1455-2.1978.5518-4.2134,1.2188-6.0469,1.083-2.958,2.6143-4.4375,4.5938-4.4375.1035,0,.2129.0054.3281.0156,1.8018.1138,2.7031,1.1602,2.7031,3.1387,0,2.1553-.9277,4.5508-2.7812,7.1846-1.1777,1.6768-2.4121,3.0361-3.7031,4.0771.3535,1.981.7441,3.4668,1.1719,4.457.791,1.835,1.9688,2.752,3.5312,2.752.1035,0,.2129-.0098.3281-.0312.3438-.0625.8223-.3125,1.4375-.751.5938-.4062,1.0566-.6094,1.3906-.6094.1455,0,.2861.0469.4219.1406.3018.208.4531.4902.4531.8438-.0215.542-.4062,1.0996-1.1562,1.6729-.9375.6768-1.9531,1.0156-3.0469,1.0156Zm-1.0625-21.5625c-.6152.0107-1.1562.2764-1.625.7979-1.1875,1.3447-1.8389,4.1543-1.9531,8.4287.625-.6357,1.25-1.3867,1.875-2.252,1.7285-2.3662,2.5938-4.3633,2.5938-5.9893,0-.0835-.0215-.1826-.0625-.2974-.167-.4585-.4434-.688-.8281-.688Z"/>
    <path d="m148.5527,26.9797c0,.3022-.0488.9531-.1445,1.9531-.2998,2.9585-.4492,4.7969-.4492,5.5156,0,.4795.0986.9277.2969,1.3438.291.625.6816.9375,1.1719.9375.1035,0,.2129-.0098.3281-.0312.3018-.0723.7393-.3174,1.3125-.7344.5625-.416,1.0156-.625,1.3594-.625.1455,0,.291.0527.4375.1562.291.209.4375.4844.4375.8281-.042.5312-.4531,1.0938-1.2344,1.6875-.959.667-1.9639,1-3.0156,1-.8867,0-1.623-.3066-2.21-.9219-.8809-.9375-1.3213-2.4268-1.3213-4.4688,0-.6978.1406-2.0625.4219-4.0938.125-.9478.2129-1.6455.2656-2.0938.0098-.0938.0205-.1875.0312-.2812.1641-1.0415.5859-1.5625,1.2637-1.5625.1133,0,.2266.0107.3398.0312.4727.1147.709.5679.709,1.3594Zm-1.75-4.0938c0-.1875.041-.3643.125-.5312.208-.4062.5469-.6094,1.0156-.6094.1875,0,.3643.042.5312.125.4062.2085.6094.5469.6094,1.0156,0,.1875-.042.3647-.125.5312-.209.4062-.5469.6094-1.0156.6094-.1875,0-.3652-.0415-.5312-.125-.4062-.208-.6094-.5469-.6094-1.0156Z"/>
    <path d="m152.0371,21.7766h.1562c.583.021,1.1094.0312,1.5791.0312l.6943-4.8115c.0439-.3228.0977-.5938.1631-.8125.1963-.6885.5928-1.0322,1.1904-1.0322.1191,0,.2383.0107.3574.0312.5.1143.75.5664.75,1.3564,0,.249-.2451,2.0054-.7344,5.2686h1.6406c.2812,0,.5254.0576.7344.1729.3643.2207.5469.5459.5469.9756,0,.189-.0469.3672-.1406.5352-.2402.3984-.6309.5977-1.1719.5977h-1.9443c-.8076,6.25-1.2119,9.7554-1.2119,10.5156,0,.4795.0986.9277.2969,1.3438.291.625.6768.9375,1.1562.9375.1143,0,.2344-.0156.3594-.0469.2812-.0723.6816-.3125,1.2031-.7188.5098-.4062.9375-.6094,1.2812-.6094.1455,0,.2861.0312.4219.0938.375.1875.5625.4746.5625.8594-.0312.542-.4326,1.1045-1.2031,1.6875-.9375.6777-1.9326,1.0156-2.9844,1.0156-1.0312-.0107-1.875-.4424-2.5312-1.2969-.667-.9062-1-2.0469-1-3.4219,0-.3018.4111-3.7549,1.2344-10.3594h-1.5938c-.7188-.063-1.0781-.4404-1.0781-1.1328,0-.1885.0312-.3618.0938-.519.1875-.4404.5781-.6606,1.1719-.6606Z"/>
    <path d="m158.4746,34.3078c0-.354.0205-.729.0625-1.125.2188-1.7812.7812-3.3643,1.6875-4.75,1.1035-1.6978,2.4316-2.5469,3.9844-2.5469.416,0,.8174.0522,1.2031.1567,1.375.3975,2.0625,1.3696,2.0625,2.9175,0,.1152-.0059.2354-.0156.3604-.1045,1.4014-.7275,2.5776-1.8711,3.5288-1.1221.9409-2.4258,1.4116-3.9121,1.4116-.2812,0-.5566-.0264-.8262-.0791-.0215.1543-.0312.3711-.0312.6489,0,.5981.1035,1.062.3115,1.3911.2803.4229.8564.6699,1.7295.7422.3848,0,.7637-.041,1.1377-.123.6543-.1543,1.4277-.5205,2.3213-1.0967.583-.3809.9941-.5723,1.2344-.5723.1348,0,.2754.042.4219.125.333.1963.5.4814.5.8545,0,.125-.0264.2598-.0781.4043-.2812.6738-1.125,1.3115-2.5312,1.9121-1.3027.5605-2.4482.8398-3.4375.8398-.375,0-.7246-.0312-1.0469-.0938-1.9375-.3955-2.9062-2.0312-2.9062-4.9062Zm5.0215-5.9971c-.9443.6406-1.6865,1.8579-2.2266,3.6523.2598.0635.5088.0947.748.0947.8613,0,1.6143-.2676,2.2578-.8027.7158-.5879,1.0742-1.2861,1.0742-2.0942s-.2539-1.2173-.7627-1.228c-.3633.0107-.7275.1367-1.0908.3779Z"/>
  </g>
  <g>
    <path d="m145.165,48.5402c0-.1328.0078-.2734.0234-.4219.082-.6719.293-1.2676.6328-1.7871.4141-.6328.9121-.9492,1.4941-.9492.25,0,.4688.0488.6562.1465.0781-.0938.1855-.1426.3223-.1465.0781,0,.127.0059.1465.0176.168.0547.252.2207.252.498,0,.1133-.0195.3574-.0586.7324-.1211,1.1094-.1816,1.7988-.1816,2.0684,0,.1797.0371.3477.1113.5039.1094.2344.2539.3516.4336.3516.0352,0,.0723-.0039.1113-.0117.1172-.0234.2852-.1133.5039-.2695.2148-.1562.3867-.2344.5156-.2344.0508,0,.1035.0176.1582.0527.1133.0781.1699.1816.1699.3105-.0117.2031-.166.4141-.4629.6328-.3555.25-.7324.375-1.1309.375-.4922-.0039-.8555-.252-1.0898-.7441-.0547.0664-.1172.1328-.1875.1992-.3867.3633-.7793.5449-1.1777.5449-.25,0-.4668-.0645-.6504-.1934-.3945-.2891-.5918-.8477-.5918-1.6758Zm2.5781-1.9277l.041-.3984c-.0859-.043-.1758-.0645-.2695-.0645-.0703,0-.1426.0098-.2168.0293-.3633.1016-.6699.4375-.9199,1.0078-.2227.5117-.334,1.0254-.334,1.541v.0586c.0117.4766.1328.7148.3633.7148.1211-.0039.2695-.0703.4453-.1992.1797-.1289.3105-.25.3926-.3633.0508-.0742.1191-.291.2051-.6504.1562-.668.2539-1.2266.293-1.6758Z" style="fill: #666;"/>
    <path d="m152.7529,50.3801c-.9414-.0391-1.6387-.6133-2.0918-1.7227-.3359-.8359-.5039-1.8594-.5039-3.0703,0-.0625.0039-.1426.0117-.2402.0547-.8242.207-1.5801.457-2.2676.4062-1.1094.9805-1.6641,1.7227-1.6641.0391,0,.0801.002.123.0059.6758.043,1.0137.4346,1.0137,1.1768,0,.8086-.3477,1.707-1.043,2.6943-.4414.6289-.9043,1.1387-1.3887,1.5293.1328.7422.2793,1.2998.4395,1.6709.2969.6885.7383,1.0322,1.3242,1.0322.0391,0,.0801-.0039.123-.0117.1289-.0234.3086-.1172.5391-.2812.2227-.1523.3965-.2285.5215-.2285.0547,0,.1074.0176.1582.0527.1133.0781.1699.1836.1699.3164-.0078.2031-.1523.4121-.4336.627-.3516.2539-.7324.3809-1.1426.3809Zm-.3984-8.0859c-.2305.0039-.4336.1035-.6094.2988-.4453.5049-.6895,1.5586-.7324,3.1611.2344-.2383.4688-.5205.7031-.8447.6484-.8867.9727-1.6357.9727-2.2461,0-.0312-.0078-.0684-.0234-.1113-.0625-.1719-.166-.2578-.3105-.2578Z" style="fill: #666;"/>
    <path d="m154.0029,46.0148c.0068-.0234.0098-.0459.0098-.0693.0557-.4111.2197-.6162.4912-.6162.0439,0,.0879.0039.1318.0117.1836.043.2754.2139.2754.5127,0,.0752-.0078.21-.0234.4053.292-.5576.71-.8379,1.2529-.8418.1885,0,.3643.0586.5254.1758.2354.1758.3525.4062.3525.6924,0,.0469-.002.1602-.0059.3398-.0039.3955-.0059.7139-.0059.9521,0,.7969.0234,1.2646.0703,1.4062.0117.0352.0234.0723.0352.1113.1133.2939.2676.4414.4629.4414.0391,0,.0801-.0039.123-.0117.1133-.0273.2793-.1191.498-.2764.2148-.1572.3867-.2354.5156-.2354.0508,0,.0996.0156.1465.0469.1211.0732.1816.1875.1816.3428,0,.0117-.002.0273-.0059.0469-.0273.1865-.1895.3779-.4863.5762-.3633.2441-.7246.3662-1.084.3662-.293,0-.541-.0801-.7441-.2402-.418-.335-.627-1.0703-.627-2.2051,0-.0664.002-.1738.0059-.3213.0078-.2158.0117-.4023.0117-.5596-.0039-.415-.0498-.6328-.1387-.6523-.0156,0-.0342.0039-.0576.0117-.2197.0742-.498.5146-.8369,1.3193-.292.7002-.4805,1.291-.5654,1.7715l-.0527.3105c-.0225.1367-.043.2783-.0615.4229-.2051,1.3555-.3428,2.4902-.4121,3.4043-.0127.1406-.0527.2676-.1211.3809-.1172.1914-.2646.2871-.4414.2871-.0889,0-.1689-.0273-.2422-.082-.1328-.1055-.1992-.2598-.1992-.4609,0-.0547.3408-2.6426,1.0215-7.7637Z" style="fill: #666;"/>
    <path d="m158.2783,49.7316l.9961-7.6191c.0586-.4531.2197-.6816.4854-.6855.0615,0,.1201.0078.1748.0234.1484.0547.2217.2197.2217.4932,0,.3369-.1348,1.7676-.4043,4.292.2793-.5137.6768-.7734,1.1934-.7773.1846,0,.3564.0605.5146.1816.2266.1719.3398.4004.3398.6855v.3281c-.0039.4023-.0059.7217-.0059.957,0,.8125.0215,1.2842.0645,1.4131.0078.0273.0176.0576.0293.0889.1172.3096.2734.4648.4688.4648.0391,0,.0801-.0039.123-.0117.1133-.0283.2793-.1221.498-.2822.2148-.1592.3867-.2393.5156-.2393.0469,0,.0938.0137.1406.041.125.0742.1875.1914.1875.3516,0,.0117-.002.0273-.0059.0469-.0273.1875-.1895.3828-.4863.5859-.3633.2422-.7227.3633-1.0781.3633-.1406,0-.2734-.0176-.3984-.0527-.6523-.1914-.9785-.8633-.9785-2.0156,0-.0977.0039-.25.0117-.457.0117-.2461.0176-.4375.0176-.5742,0-.5781-.0479-.8711-.1445-.8789-.0186,0-.0391.0039-.0615.0117-.2109.0859-.4805.5254-.8066,1.3174-.2852.7051-.4688,1.2988-.5508,1.7812-.0752.373-.1123.6631-.1123.8682-.0029-.3193-.0137-.4219-.0312-.3057-.1201.1807-.2715.2705-.4561.2705-.0508,0-.1025-.0098-.1543-.0293-.2051-.0781-.3076-.2598-.3076-.5449v-.0918Z" style="fill: #666;"/>
    <path d="m163.0596,48.5402c0-.1328.0078-.2734.0234-.4219.082-.6719.293-1.2676.6328-1.7871.4141-.6328.9121-.9492,1.4941-.9492.25,0,.4688.0488.6562.1465.0781-.0938.1855-.1426.3223-.1465.0781,0,.127.0059.1465.0176.168.0547.252.2207.252.498,0,.1133-.0195.3574-.0586.7324-.1211,1.1094-.1816,1.7988-.1816,2.0684,0,.1797.0371.3477.1113.5039.1094.2344.2539.3516.4336.3516.0352,0,.0723-.0039.1113-.0117.1172-.0234.2852-.1133.5039-.2695.2148-.1562.3867-.2344.5156-.2344.0508,0,.1035.0176.1582.0527.1133.0781.1699.1816.1699.3105-.0117.2031-.166.4141-.4629.6328-.3555.25-.7324.375-1.1309.375-.4922-.0039-.8555-.252-1.0898-.7441-.0547.0664-.1172.1328-.1875.1992-.3867.3633-.7793.5449-1.1777.5449-.25,0-.4668-.0645-.6504-.1934-.3945-.2891-.5918-.8477-.5918-1.6758Zm2.5781-1.9277l.041-.3984c-.0859-.043-.1758-.0645-.2695-.0645-.0703,0-.1426.0098-.2168.0293-.3633.1016-.6699.4375-.9199,1.0078-.2227.5117-.334,1.0254-.334,1.541v.0586c.0117.4766.1328.7148.3633.7148.1211-.0039.2695-.0703.4453-.1992.1797-.1289.3105-.25.3926-.3633.0508-.0742.1191-.291.2051-.6504.1562-.668.2539-1.2266.293-1.6758Z" style="fill: #666;"/>
  </g>
</svg>
